<svg width="59" height="73" fill="none" xmlns="http://www.w3.org/2000/svg"><path fill-rule="evenodd" clip-rule="evenodd" d="M58.3 21.5a3 3 0 00-2.4-1.1H17.3L14.8 13H3.1a3 3 0 100 6h7.4L24 59.3H49a3 3 0 000-6H28.3L26.6 48h23a3 3 0 003-2.2l6.2-21.7a3 3 0 00-.5-2.7zm-7.7 9.7h-4.9v-4.8H52l-1.4 4.8zm-17.7-4.8v4.8h6.8v-4.8H33zm6.8 10.8v4.9H33v-4.9h6.8zm-12.8-6v-4.8h-7.6l1.6 4.8h6zm-4 6h4v4.9h-2.3l-1.7-4.9zm22.8 0v4.9h1.7l1.4-4.9h-3z" fill="#fff"/><path d="M27.4 72.9a5.8 5.8 0 100-11.6 5.8 5.8 0 000 11.6zM44.8 72.9a5.8 5.8 0 100-11.6 5.8 5.8 0 000 11.6zM29.3 10.7l7.6 5.5a2 2 0 002.8-.5c.6-1 .4-2.2-.5-2.9l-2.4-1.7L46.3 6l4.6 12h4.4l-6-15.7A2 2 0 0048 1.1a2 2 0 00-1.6.1L33 8.4l-3-2.2a2 2 0 00-2.7.4l-8.5 10.8-.4.6h5.1l5.7-7.3z" fill="#fff"/></svg>